<svg width="15" height="13" viewBox="0 0 15 13" fill="none" xmlns="http://www.w3.org/2000/svg">
<path d="M13.0868 0.697903C12.9182 0.710165 12.7528 0.749704 12.5969 0.814978H12.5948C12.4452 0.874303 11.7338 1.17355 10.6523 1.62715L6.77678 3.25938C3.99585 4.43013 1.26218 5.58303 1.26218 5.58303L1.29473 5.57043C1.29473 5.57043 1.10625 5.63238 0.909376 5.7673C0.787748 5.8447 0.683087 5.94597 0.601726 6.06498C0.505126 6.20673 0.427426 6.42355 0.456301 6.64773C0.503551 7.02678 0.749251 7.2541 0.925651 7.37958C1.10415 7.50663 1.27425 7.56595 1.27425 7.56595H1.27845L3.84203 8.42958C3.957 8.79865 4.62323 10.989 4.78335 11.4935C4.87785 11.7948 4.96973 11.9833 5.0847 12.1272C5.14035 12.2007 5.20545 12.2621 5.28368 12.3114C5.32434 12.3351 5.3677 12.3538 5.41283 12.3671L5.38658 12.3608C5.39445 12.3629 5.40075 12.3692 5.40653 12.3713C5.42753 12.3771 5.4417 12.3792 5.46848 12.3834C5.8743 12.5062 6.20033 12.2542 6.20033 12.2542L6.2187 12.2395L7.73228 10.8614L10.2691 12.8076L10.3268 12.8322C10.8555 13.0643 11.391 12.9351 11.674 12.7073C11.9591 12.4779 12.0698 12.1844 12.0698 12.1844L12.0882 12.1371L14.0486 2.0944C14.1042 1.8466 14.1184 1.61455 14.057 1.38933C13.9936 1.16139 13.8474 0.965342 13.6469 0.839653C13.4786 0.737338 13.2835 0.687953 13.0868 0.697903ZM13.0337 1.77415C13.0316 1.80723 13.0379 1.80355 13.0232 1.86708V1.87285L11.0813 11.8111C11.0729 11.8253 11.0587 11.8563 11.0198 11.8872C10.9789 11.9198 10.9463 11.9403 10.7757 11.8725L7.67295 9.49375L5.7987 11.2021L6.19245 8.68735L11.2619 3.96235C11.4708 3.7681 11.401 3.72715 11.401 3.72715C11.4157 3.4888 11.0855 3.65733 11.0855 3.65733L4.69305 7.6174L4.69095 7.6069L1.62705 6.57528V6.57318L1.61918 6.5716C1.62455 6.56982 1.62981 6.56771 1.63493 6.5653L1.65173 6.5569L1.668 6.55113C1.668 6.55113 4.40378 5.39823 7.1847 4.22748C8.577 3.64105 9.9798 3.05043 11.0587 2.59473C12.1376 2.14165 12.935 1.80933 12.9802 1.79148C13.0232 1.77468 13.0028 1.77468 13.0337 1.77468V1.77415Z" fill="#222222"/>
</svg>
